<?xml version="1.0" encoding="UTF-8"?>
<svg version="1.0" viewBox="0 0 587.17 692.1" xmlns="http://www.w3.org/2000/svg">
 <g transform="translate(-62.098 -84.25)">
  <g transform="matrix(1.3813 0 0 1.4859 -198.8 -89.495)">
   <g transform="matrix(2.0727 0 0 2.2499 940.32 335.98)">
    <path transform="matrix(.48247 0 0 .44446 -453.68 -149.33)" d="m392.55 339.06l-35.638 6.9149 14.894 28.191 8.5106 9.5745 225-102.66 0.53191-6.383 3.1915-5.8511-3.1915-9.5745-11.702 2.1277-181.38 73.936-20.213 3.7234z" fill="#ebe4c7" fill-rule="evenodd"/>
    <path d="m-359.82-68.345c-0.696 3.782-2.387 9.227 1.51 11.972 4.175 2.942 15.191 2.728 20.49 4.18 16.065 4.403 33.376 14.132 50 14.848-3.04-10.097-31.863-15.696-41-14-2.191-7.488-15.956-3.828-21-9l38 5c2.616 4.05 8.49 3.955 12.911 5.17 8.009 2.2 17.769 4.111 23.089 10.83h5l-1 4h4l-1 6h1l1-2c5.58 4.203 15.73-1.411 22-2.79 20.68-4.552 47.34-11.433 65.71-22.16 5.48-3.199 23.3-5.191 21.53-14.011-1.13-5.662-6.63-6.654-11.24-8.125-11.1-3.543-22.71-4.908-34-7.662-14.19-3.461-27.98-12.343-43-11.159-7.78 0.613-15.44 4.316-23 6.159-16.38 3.989-32.831 7.074-49 11.95-13.39 4.038-27.937 10.193-42 10.798z" fill="#1890cd"/>
    <path d="m-237.82-97.345v1h3l-3-1z" fill="#aaa9ab"/>
    <path d="m-214.15-90.012l0.66 0.334-0.66-0.334z" fill="#a1d2ed"/>
    <path d="m-281.82-89.345v1h4l-4-1z" fill="#aaa9ab"/>
    <path d="m-291.82-87.345v1h6l-6-1z" fill="#6799d5"/>
    <path d="m-296.82-86.345v1h5l-5-1z" fill="#5ac9e4"/>
    <path d="m-300.82-85.345v1h4l-4-1z" fill="#6799d5"/>
    <path d="m-312.15-81.012l0.666 0.334-0.666-0.334z" fill="#aaa9ab"/>
    <path d="m-328.82-76.345v1h3l-3-1z" fill="#a1d2ed"/>
    <path d="m-351.82-71.345v1h6l-6-1z" fill="#a1d2ed"/>
    <path d="m-357.82-69.345v1l9-1h-9z" fill="#6799d5"/>
    <path d="m-360.82-67.345c-2.393 4.489-2.802 9.195 2 12l-2-12z" fill="#4a5ce2"/>
    <path d="m-170.82-58.345l8-4-8 4z" fill="#61504a"/>
    <path d="m-349.82-60.345c4.325 6.826 17.105 1.163 21 9 10.049-1.269 36.02 4.04 41 14-24.784-1.972-46.373-18-72-18v1l6 3 5-2c2.195 2.516 12.641 6.668 15 4l12 6c7.85-0.498 12.097 5.093 19.089 7.714 12.211 4.577 24.861 7.285 37.911 7.286l-3-1h-1l1-6h-4l1-4h-5c-6.63-12.382-27.095-6.871-36-16l-38-5z" fill="#1c5398"/>
    <path d="m-277.82-24.345l1 3 8 2v1l-2 2c3.75 0.882 7.75 1.774 8-3l2 3 4-3h1c6.27 4.321 14.62-1.509 21-3.424 19.12-5.733 39.62-10.858 58-18.437 5.13-2.117 21.35-8.55 15.97-16.821-4.06-6.231-23.88 4.888-28.97 7.031-13.92 5.864-27.78 9.369-42 14.334-14.47 5.052-30.37 12.188-46 12.317z" fill="#d44a8a"/>
    <path d="m-177.82-58.345v1l7-1h-7z" fill="#4a5ce2"/>
    <path d="m-181.82-55.345v1l8-2-8 1z" fill="#61504a"/>
    <path d="m-159.82-57.345v4h1l-1-4z" fill="#a59075"/>
    <path d="m-357.82-54.345l3 2-3-2z" fill="#6799d5"/>
    <path d="m-189.82-52.345v1l8-2-8 1z" fill="#61504a"/>
    <path d="m-354.82-53.345l-3 2v1l8 2v-1l-5-4z" fill="#9c2730"/>
    <path d="m-350.82-53.345l-1 4c14.594 5.49 32.397 12.953 48 14v-1c-6.042-3.491-10.711-7.796-18-7l-12-6-15-4h-2z" fill="#4a5ce2"/>
    <path d="m-322.82-40.345c5.124 6.098 21.321 7.74 29.01 9.446 8.27 1.832 16.4 4.666 24.99 4.5 26.68-0.516 54.18-15.855 79-23.946-5.58-2.156-10.89 2.276-16 4.14-12.99 4.745-27.77 10.73-41.01 13.886-28.12 6.698-48.788-3.42-75.99-8.026z" fill="#61504a"/>
    <path d="m-359.82-50.345v6h1l-1-6z" fill="#ccabab"/>
    <path d="m-358.82-50.345c0.132 5.468 1.297 8.821 7 10l-1 2c20.905 7.437 41.499 14.717 63 20.489 11.46 3.077 24.45 5.838 36 1.511l-1-3h-8c-0.62 4.463-4.37 3.635-8 3l2-2v-1l-9-5h8l-59.961-16.552-29.039-9.448z" fill="#c92e66"/>
    <path d="m-353.82-38.345l1 4c-12.624 6.962 8.013 13.548 13 15.576 13.661 5.556 27.966 10.272 42 14.643 7.99 2.487 16.47 6.275 25 5.691 7.82-0.535 15.38-4.352 23-6.165 22.16-5.269 44.97-13.95 66-22.748 6.47-2.707 15.51-4.684 20.68-9.634 2.32-2.215 3.39-7.383 0-9.277-4.31-2.407-20.7 7.351-25.68 9.052-12.45 4.255-25.54 6.941-38 11.301-11.77 4.117-24.63 10.609-37 12.352-9.07 1.278-16.5-2.016-25-4.302-15.734-4.23-31.425-8.805-47-13.68-6.114-1.914-11.681-5.982-18-6.809z" fill="#181920"/>
    <path d="m-160.82-43.345v3h1l-1-3z" fill="#a59075"/>
    <path d="m-333.82-42.345v1l8 1-8-2z" fill="#61504a"/>
    <path d="m-277.82-34.345l4-1-4 1z" fill="#122662"/>
    <path d="m-353.82-24.345l-3 15 64.99 18.938 26.01 8.062-7-14c7.9 1.063 11.84 3.182 18-3l1 3c10.17-4.425 22.58-11.592 34-10v-5h1l1 2h1l12-9 33-10 4-2 6-3-1-3-79 30.003-32 8.799-26-7.096-54-19.706z" fill="#d8d1b3"/>
    <path d="m-344.82-35.345l3 2-3-2z" fill="#9c2730"/>
    <path d="m-253.82-32.345v1l12-2-12 1z" fill="#4a5ce2"/>
    <path d="m-204.82-34.345v1h4l-4-1z" fill="#9c2730"/>
    <path d="m-175.15-31.012l0.66 0.334-0.66-0.334z" fill="#a59075"/>
    <path d="m-180.15-29.012l0.66 0.334-0.66-0.334z" fill="#8c679e"/>
    <path d="m-183.15-28.012l0.66 0.334-0.66-0.334z" fill="#896462"/>
    <path d="m-281.82-27.345v1l17 1-17-2z" fill="#9c2730"/>
    <path d="m-191.15-25.012l0.66 0.334-0.66-0.334z" fill="#896462"/>
    <path d="m-273.82 18.655v1l7 4 1 7c21.62-5.72 41.58-15.55 61.71-25.255 9.58-4.616 19.78-14.206 30.29-14.745v-3c9.18-0.026 15.4-2.899 13-13l-25 10.706-68 27.068-20 6.226z" fill="#61504a"/>
    <path d="m-193.15-24.012l0.66 0.334-0.66-0.334z" fill="#a59075"/>
    <path d="m-196.82-23.345v1h3l-3-1z" fill="#a59075"/>
    <path d="m-200.82-22.345v1h3l-3-1z" fill="#896462"/>
    <path d="m-159.82-22.345v5h1l-1-5z" fill="#a59075"/>
    <path d="m-202.15-21.012l0.66 0.334-0.66-0.334z" fill="#a59075"/>
    <path d="m-343.15-20.012l0.666 0.334-0.666-0.334z" fill="#61504a"/>
    <path d="m-340.15-19.012l0.666 0.334-0.666-0.334z" fill="#61504a"/>
    <path d="m-209.15-18.012l0.66 0.334-0.66-0.334z" fill="#8c679e"/>
    <path d="m-212.15-17.012l0.66 0.334-0.66-0.334z" fill="#a59075"/>
    <path d="m-215.15-16.012l0.66 0.334-0.66-0.334z" fill="#a59075"/>
    <path d="m-330.15-15.012l0.666 0.334-0.666-0.334z" fill="#a59075"/>
    <path d="m-279.82-15.345v1l19 1-19-2z" fill="#513331"/>
    <path d="m-162.82-15.345c-23.83 16.346-52.68 26.775-79.29 38.237-7.89 3.403-26.58 5.836-25.71 16.763l-4-1 2 6c11.43-0.5 21.08-6.894 30.96-11.83 19.39-9.692 38.63-21.366 59.04-28.622 7.08-2.518 23.4-10.162 17-19.548z" fill="#ab9127"/>
    <path d="m-190.15-13.012l0.66 0.334-0.66-0.334z" fill="#a59075"/>
    <path d="m-321.15-12.012l0.666 0.334-0.666-0.334z" fill="#6c976a"/>
    <path d="m-226.15-12.012l0.66 0.334-0.66-0.334m33 0l0.66 0.334-0.66-0.334z" fill="#a59075"/>
    <path d="m-173.82-12.345v3c-4.98 0.117-11.17 0.748-13 6l18-8-5-1z" fill="#896462"/>
    <path d="m-317.15-11.012l0.666 0.334-0.666-0.334z" fill="#61504a"/>
    <path d="m-229.15-11.012l0.66 0.334-0.66-0.334z" fill="#8c679e"/>
    <path d="m-160.82-11.345v3h1l-1-3z" fill="#d8d1b3"/>
    <path d="m-315.15-10.012l0.666 0.334-0.666-0.334z" fill="#61504a"/>
    <path d="m-232.82-10.345v1h3l-3-1z" fill="#a59075"/>
    <path d="m-199.15-10.012l0.66 0.334-0.66-0.334z" fill="#aaa9ab"/>
    <path d="m-336.82 9.6553v3c9.485 0.604 19.553 5.832 28.17 9.34 5.922 2.412 12.747 2.634 18.83 4.739 11.95 4.138 18.64 9.227 31 2.921v-1l-7 2-1-7c-4.22-2.652-7.61-6.778-12.01-9.052-16.048-8.277-39.359-12.045-56.99-15.907-4.184-0.917-16.898-9.01-20.382-6.88-2.756 1.685-0.61 7.355 0.971 9.124 4.343 4.862 12.015 8.382 18.411 8.715z" fill="#513331"/>
    <path d="m-312.15-9.0117l0.666 0.334-0.666-0.334z" fill="#61504a"/>
    <path d="m-235.15-9.0117l0.66 0.334-0.66-0.334z" fill="#a59075"/>
    <path d="m-309.15-8.0117l0.666 0.334-0.666-0.334z" fill="#61504a"/>
    <path d="m-238.15-8.0117l0.66 0.334-0.66-0.334z" fill="#a59075"/>
    <path d="m-358.82-7.3447v4h1l-1-4z" fill="#d8d1b3"/>
    <path d="m-241.15-7.0117l0.66 0.334-0.66-0.334z" fill="#a59075"/>
    <path d="m-349.82-6.3447v1h3l-3-1z" fill="#896462"/>
    <path d="m-345.15-5.0117l0.666 0.334-0.666-0.334z" fill="#a59075"/>
    <path d="m-249.15-5.0117l0.66 0.334-0.66-0.334z" fill="#61504a"/>
    <path d="m-247.15-5.0117l0.66 0.334-0.66-0.334m39 0l0.66 0.334-0.66-0.334z" fill="#a59075"/>
    <path d="m-202.82 3.6553v1c6.26-0.977 19.56-4.536 23-10l-23 9z" fill="#d44a8a"/>
    <path d="m-357.82-4.3447v4h1l-1-4m14.667 0.333l0.666 0.334-0.666-0.334m44.333-0.333v1h3l-3-1z" fill="#a59075"/>
    <path d="m-254.82-3.3447v1l7-1h-7z" fill="#aaa9ab"/>
    <path d="m-295.15-3.0117l0.666 0.334-0.666-0.334z" fill="#a59075"/>
    <path d="m-257.82-3.3447v1h3l-3-1z" fill="#61504a"/>
    <path d="m-267.82 52.655h-4v1c10.99-0.236 22.36-7.989 32-12.891 15.91-8.091 32.78-14.608 49-22.061 8.62-3.959 18.43-10.433 28-11.048l-2-11c-15.02 5.306-28.75 14.423-43.17 20.954-12.7 5.756-25.88 11.021-37.74 18.621-6.95 4.455-25.78 5.384-22.09 16.425z" fill="#89c537"/>
    <path d="m-339.82-2.3447v1h5l-5-1z" fill="#a59075"/>
    <path d="m-260.15-2.0117l0.66 0.334-0.66-0.334z" fill="#8c679e"/>
    <path d="m-263.15-1.0117l0.66 0.334-0.66-0.334z" fill="#8c679e"/>
    <path d="m-285.82-0.34469v1h4l-4-1z" fill="#61504a"/>
    <path d="m-356.48 1.3223l0.334 0.666-0.334-0.666z" fill="#ccabab"/>
    <path d="m-327.82 0.65531v1h3l-3-1z" fill="#a59075"/>
    <path d="m-269.15 0.98831l0.66 0.334-0.66-0.334z" fill="#896462"/>
    <path d="m-222.15 0.98831l0.66 0.334-0.66-0.334z" fill="#a59075"/>
    <path d="m-355.82 1.6553v1l19 9-19-10z" fill="#61504a"/>
    <path d="m-277.82 1.6553v1h8l-8-1z" fill="#a59075"/>
    <path d="m-162.82 1.6553v6h1l-1-6z" fill="#d8d1b3"/>
    <path d="m-352.82 14.655l-4-10 5 2c-4.296-7.74-8.745 3.936-1 8z" fill="#d44a8a"/>
    <path d="m-356.82 4.6553c0.452 4.975 1.928 8.602 7 10v4l49 13.385 20 3.615c1.47 3.686 5.84 6.475 9 3l4 1v-6l-23-7.562-66-21.438z" fill="#e0372d"/>
    <path d="m-312.82 4.6553v1h3l-3-1z" fill="#a59075"/>
    <path d="m-309.82 5.6553v1h4l-4-1z" fill="#a59075"/>
    <path d="m-305.15 6.9883l0.666 0.334-0.666-0.334z" fill="#a59075"/>
    <path d="m-211.82 7.6553v1l6-1h-6z" fill="#9c2730"/>
    <path d="m-210.82 27.655v1l46-18 2-2c-5.13-2.072-10.34 1.589-15 3.694-11.06 5-22.2 9.757-33 15.306z" fill="#61504a"/>
    <path d="m-164.82 8.6553l3 11c3.52-4.394 3.91-10.696-3-11z" fill="#a59075"/>
    <path d="m-297.82 8.6553v1l11 2-11-3z" fill="#ccabab"/>
    <path d="m-295.15 9.9883l0.666 0.334-0.666-0.334z" fill="#896462"/>
    <path d="m-247.15 9.9883l0.66 0.334-0.66-0.334z" fill="#aaa9ab"/>
    <path d="m-201.82 25.655l1 10c10.44-2.735 24.56-9.034 33.85-14.705 3.23-1.972 4.34-7.093 0.84-9.583-3.6-2.556-6.99 2.974-9.74 4.58-7.93 4.626-17.77 5.596-25.95 9.708z" fill="#a59075"/>
    <path d="m-164.82 9.6553l-1 1 2 7h2l-3-8z" fill="#8c679e"/>
    <path d="m-249.15 10.988l0.66 0.334-0.66-0.334z" fill="#a59075"/>
    <path d="m-283.15 12.988l0.66 0.334-0.66-0.334z" fill="#a59075"/>
    <path d="m-196.82 22.655v1c7.29-1.726 20.8-4.475 25-11l-25 10z" fill="#8c679e"/>
    <path d="m-353.82 14.655c1.074 3.931 3.096 5.885 7 7v-1l-3-6h-4z" fill="#ab9127"/>
    <path d="m-263.82 15.655v1h3l-3-1z" fill="#a59075"/>
    <path d="m-354.82 16.655l1 12c13.989 3.597 28.302 10.913 42.286 15.454 5.345 1.737 11.286-1.058 14.714 4.546 12.05 0.767 21.7 10.189 34 5v-1l-9 1v-1h4v-8l-38.996-11.651-13.174-6.105-34.83-10.244z" fill="#6c976a"/>
    <path d="m-317.82 17.655v1l7 2v-1l-7-2z" fill="#9c2730"/>
    <path d="m-273.82 17.655v1h5l-5-1z" fill="#a59075"/>
    <path d="m-163.82 17.655c-6.36 6.953-18.47 9.434-27 13.012-16.17 6.781-31.66 15.652-48 22.275-9.05 3.668-23.81 6.731-29 15.713l4-1c6.13-6.468 16.1-7.847 24-11.174 17.93-7.549 35.29-16.449 53-24.466 7.77-3.519 18.41-10.92 27-10.36l-2-4h-2z" fill="#9c2730"/>
    <path d="m-349.82 18.655v1l19 4v-1l-19-4z" fill="#896462"/>
    <path d="m-263.82 67.655l-2 1c-4.95-1.18-10.11-0.406-15-1.719-17.658-4.741-35.098-14.315-52-21.32-7.35-3.047-19.975-7.939-17 5.039 9.488-0.247 15.267 5.217 23.089 9.296 5.35 2.789 11.483 2.365 16.896 4.892 10.486 4.896 21.005 13.571 33.015 14.708 14.62 1.383 21.88-5.69 34-12.158 10.52-5.613 23.63-12.21 35-15.738l-1-3c4.46 0.782 6.94 0.843 8-4 8.05-0.266 16.43-6.467 24-9.343 4.74-1.802 10.53-1.907 14.94-4.345 3.47-1.922 4.72-6.924 0.59-9.18-4.58-2.495-19.99 6.993-24.53 9.238-18.01 8.91-36.47 17.655-55 25.456-7.07 2.976-18.65 4.237-23 11.174z" fill="#c92e66"/>
    <path d="m-159.82 20.655v4h1l-1-4z" fill="#ccabab"/>
    <path d="m-311.82 46.655c-0.587-5-5.911-5.489-10-7.051-7.42-2.834-15.294-3.997-22.711-6.875-2.848-1.105-5.889-4.663-9.179-3.991-7.342 1.498 0.838 12.431 2.89 14.917 7.439-4.131 15.916 1.546 23 4.457 15.756 6.474 35.84 19.369 53 19.539 9.3 0.092 16.89-6.363 25-10.387 12.12-6.014 25.51-10.363 38-15.74 3.15-1.358 20.29-9.869 9.61-14.222-4.97-2.024-13.17 4.119-17.61 5.904-15.7 6.31-31.63 17.873-48 21.866-13.95 3.405-30.253-7.387-44-8.417z" fill="#8c679e"/>
    <path d="m-312.82 28.655c2.461 4.322 6.281 4.889 11 5l-11-5z" fill="#ab9127"/>
    <path d="m-229.82 35.655v1c5.66-0.974 14.5-3.23 18-8l-18 7z" fill="#896462"/>
    <path d="m-160.82 29.655c-6.35 3.947-13.42 5.352-20 8.609-18.4 9.102-36.56 18.496-55 27.372-9.64 4.638-23.23 14.557-34 14.889-12.94 0.4-26.348-9.001-38-13.617-10.262-4.065-20.765-7.564-31-11.705-4.51-1.825-10.063-4.29-11.677 2.457-1.939 8.102 6.368 7.145 11.507 8.453 11.713 2.981 22.368 8.801 34.17 11.673 9.034 2.198 18.67 7.684 26.96 11.92 3.49 1.783 6.12 5.259 10.13 5.816 9.22 1.279 16.48-5.957 24.08-10.006 11.82-6.298 24.28-11.537 35.74-18.516 4.8-2.924 8.24-7.557 13.11-10.288 9.59-5.377 19.42-8.45 28.26-15.442 4.19-3.306 8.14-5.787 5.72-11.615z" fill="#dda730"/>
    <path d="m-305.82 31.655v1l36 10v-1l-11-6-25-4z" fill="#896462"/>
    <path d="m-200.82 44.655l-1 5 34-16c-10.82-3.202-22.54 10.203-33 11z" fill="#e0372d"/>
    <path d="m-262.82 52.655l33-15c-6.58-1.362-29.01 9.575-33 15z" fill="#896462"/>
    <path d="m-167.82 42.655l5-2-5 2z" fill="#ccabab"/>
    <path d="m-204.82 65.655c10.11-4.596 19.46-10.521 29-16.048 4.89-2.83 9.01-3.239 10 3.048h2l1-11 1 3c1.48-6.581-7.71-1-10 0.302-9.47 5.385-27.25 11.283-33 20.698z" fill="#513331"/>
    <path d="m-163.82 41.655v10c3.39-2.666 4.77-4.666 4-9l-2 2-2-3z" fill="#255269"/>
    <path d="m-351.82 43.655v4h1l-1-4z" fill="#d44a8a"/>
    <path d="m-311.82 45.655v1l15 2c-1.661-5.677-10.454-4.48-15-3z" fill="#896462"/>
    <path d="m-206.82 65.655c0 4.831-11.17 8.143-15 10.167-12.3 6.491-25.27 12.341-37 19.833-3.77 2.407-11.32 4.121-10.83 10 0.83 10.212 21.53-4.196 24.83-6.167 21.3-12.723 42.72-25.291 64-38 3.7-2.211 12.07-4.786 14.5-8.166 1.55-2.156 0.46-7.159-2.5-7.334-4.51-0.265-10.67 5.38-14 7.834-5.71 4.201-17.01 10.361-24 11.833z" fill="#255269"/>
    <path d="m-160.49 48.322l0.34 0.666-0.34-0.666z" fill="#ccabab"/>
    <path d="m-296.82 48.655v1l17 4-17-5z" fill="#896462"/>
    <path d="m-208.82 48.655l1 3-42 19v1c15.25-2.627 33.66-13.241 47-21l-6-2z" fill="#e0372d"/>
    <path d="m-347.82 50.655l18 8c-2.929-5.144-12.304-8.7-18-8z" fill="#9c2730"/>
    <path d="m-199.82 60.655l10-5c-4.03-1.069-7.86 1.663-10 5z" fill="#d8d1b3"/>
    <path d="m-351.82 56.655v4h1l-1-4z" fill="#d8d1b3"/>
    <path d="m-288.82 57.655l12 7h3l1-4-16-3z" fill="#61504a"/>
    <path d="m-317.82 62.655v1l13 4-13-5z" fill="#9c2730"/>
    <path d="m-344.82 65.655v1l27 8v-1l-27-8z" fill="#513331"/>
    <path d="m-342.82 65.655v1h6l-6-1z" fill="#ab9127"/>
    <path d="m-344.82 66.655v3h1l-1-3z" fill="#8c679e"/>
    <path d="m-269.82 95.655v2c10.03-0.083 16.43-4.966 25-9.415 13.04-6.774 26.24-13.163 39-20.585-5.72-1.383-12.12 4.676-17 7.181-13.58 6.967-31.71 20.807-47 20.819z" fill="#513331"/>
    <path d="m-344.82 76.655c8.106 0.813 15.83 5.991 23 9.626 17.116 8.677 39.58 23.372 59 23.374v-1c-10.42-0.805-3.88-8.581 2-11-21.43-5.173-41.196-16.812-62-24.093-8.781-3.072-21.866-11.719-22 3.093z" fill="#122662"/>
    <path d="m-345.82 69.655v4h1l-1-4z" fill="#61504a"/>
    <path d="m-220.15 72.988l0.66 0.334-0.66-0.334z" fill="#896462"/>
    <path d="m-345.48 74.322l0.334 0.666-0.334-0.666z" fill="#aaa9ab"/>
    <path d="m-343.82 76.655v1l6 1-6-2z" fill="#8c679e"/>
    <path d="m-312.82 76.655l13 7.421 29 11.579-11-6.461-31-12.539z" fill="#513331"/>
    <path d="m-310.82 76.655v1l37 14c-9.48-6.852-25.279-14.043-37-15z" fill="#ab9127"/>
    <path d="m-274.82 79.655v1h9l-9-1z" fill="#e0372d"/>
    <path d="m-332.15 80.988l0.666 0.334-0.666-0.334z" fill="#8c679e"/>
    <path d="m-310.15 90.988l0.666 0.334-0.666-0.334z" fill="#a59075"/>
    <path d="m-296.15 97.988l0.666 0.334-0.666-0.334z" fill="#8c679e"/>
    <path d="m-290.15 100.99l0.66 0.334-0.66-0.334z" fill="#8c679e"/>
   </g>
  </g>
 </g>
</svg>
