<?xml version="1.0" encoding="UTF-8"?>
<svg version="1.0" viewBox="0 0 195.17 621.43" xmlns="http://www.w3.org/2000/svg">
 <g transform="translate(-315.42 -155.02)">
  <path d="m464.67 510.13l-12.692 202.37h-43.012l6.346-205.19 49.358 2.8204z" fill="#54b59d" fill-rule="evenodd" stroke="#000" stroke-linecap="round" stroke-linejoin="round" stroke-width="2.1"/>
  <path d="m415.31 728.71l-7.7563 16.218 1.4102 14.807s81.085 10.913 90.731-0.67574c9.532-11.452-38.136-21.709-45.832-29.615-7.696-7.9057-8.938-12.016-8.938-12.016l-33.14 0.70511 3.5256 10.577z" fill="#a9c8e7" fill-rule="evenodd" stroke="#000" stroke-linecap="round" stroke-linejoin="round" stroke-width="2.1"/>
  <path d="m407.56 752.69l-6.346 8.4614 7.7563 7.0511 97.087 0.23831-0.46681-10.795-5.6605-1.4298h-16.218l-70.511-1.4102-5.6409-2.1153z" fill="#54b59d" fill-rule="evenodd" stroke="#000" stroke-linecap="round" stroke-linejoin="round" stroke-width="2.1"/>
  <path d="m444.22 768.2l22.564-31.025 16.923 4.9358-16.218 26.794-23.269-0.70512z" fill="#54b59d" fill-rule="evenodd" stroke="#000" stroke-linecap="round" stroke-linejoin="round" stroke-width="2.1"/>
  <path d="m379.35 505.19l20.448 66.281-59.23 98.716 26.089 18.333 70.951-112.53s0.2895-3.021 0.37697-15.729c0.08748-12.708-26.201-64.234-26.201-64.234l-32.435 9.1665z" fill="#54b59d" fill-rule="evenodd" stroke="#000" stroke-linecap="round" stroke-linejoin="round" stroke-width="2.1"/>
  <path d="m504.28 451.05l3.2895 10.855 1.9737 16.118s-8.3451 12.895-12.5 13.487-7.2284-1.9532-8.2237-4.9342 4.2763-10.526 4.2763-10.526l4.6053-10.855-7.5658 3.6184 0.98684 5.5921-3.2895 1.9737-2.9605-7.2368-0.65789-4.6053 4.2763-13.816 13.158-4.2763 2.6316 4.6053z" fill="#fef2ec" fill-rule="evenodd" stroke="#000" stroke-linecap="round" stroke-linejoin="round" stroke-width="2.1"/>
  <path d="m363.13 518.59l122.69-4.9358-17.628-193.91 11.987 135.38 28.408-5.3925-12.895-138.45s-10.578-26.848-22.651-32.834c-16.747-8.3021-69.719-5.9477-69.719-5.9477s-29.272-2.8865-39.271 3.8642c-17.267 11.657-29.125 61.006-29.125 61.006l7.7562 83.909 35.256-1.4102-10.577 79.678-4.2307 19.038z" fill="#54b59d" fill-rule="evenodd" stroke="#000" stroke-linecap="round" stroke-linejoin="round" stroke-width="2.1"/>
  <path d="m403.29 434.6l-58.224 0.6579 1.9737 17.434 58.224-1.3158-1.9737-16.776z" fill="#ae8d64" fill-rule="evenodd" stroke="#000" stroke-linecap="round" stroke-linejoin="round" stroke-width="2.1"/>
  <path d="m377.24 421.29l-11.282-59.23 19.743-49.358" fill="none" stroke="#000" stroke-linecap="round" stroke-linejoin="round" stroke-width="2.1"/>
  <path d="m394.16 272.51l29.989 49.138 21.485-46.318-51.473-2.8204z" fill="#fef2ec" fill-rule="evenodd" stroke="#000" stroke-linecap="round" stroke-linejoin="round" stroke-width="2.1"/>
  <path d="m393.45 273.21l-4.2307 20.448 13.397 2.1153v23.974l21.153 2.1153 22.564-12.692-7.7563-13.397 17.628-7.0511-11.282-13.397" fill="none" stroke="#000" stroke-linecap="round" stroke-linejoin="round" stroke-width="2.1"/>
  <path d="m424.48 321.86l0.68222 193.07" fill="none" stroke="#000" stroke-linecap="round" stroke-linejoin="round" stroke-width="2.1"/>
  <rect x="377.79" y="169.41" width="89.526" height="107.68" rx="31.529" ry="47.327" fill="#fef2ec" fill-rule="evenodd" stroke="#000" stroke-linecap="round" stroke-linejoin="round" stroke-width="2.1"/>
  <path d="m376.53 219.62c4.4972-4.1881 8.002-1.1935 15.578-1.1935 3.0483 17.768 8.1162 8.0644 8.5926-8.0844 0-5.8081-3.2066-14.66 3.3287-17.516 3.5404-1.5473 12.943-2.1153 16.923-2.1153 7.1292 0 11.145 0.63675 16.923 3.5256 6.6673 3.3336 10.487 5.9303 18.333 7.0511 6.7884 0.96977 15.783 1.3634 18.333 2.8205 4.2903 2.4516 0.49335-10.014-0.70511-14.807-1.1808-4.7231-9.9734-11.333-12.692-12.692-3.5423-1.7712-7.2955-7.5259-11.987-9.8716-6.8834-3.4417-12.644-4.9358-20.448-4.9358-5.6199 0-11.572-0.45631-16.218 0.70511-5.1008 1.2752-15.083 3.129-16.218-1.4102-0.77374-3.095-4.9358-8.2139-4.9358-2.1153 0 6.7857-3.7499-0.92942-5.6409-2.8204-1.2218-1.2218 2.6342 9.6933-7.0511 7.7562-8.133-1.6266-1.0377 3.9781 0 9.1665 1.1272 5.636-4.0185 9.6594-6.346 11.987-4.7635 4.7635-4.717 6.0785-2.1154 11.282 2.8262 5.6525 3.5256 6.426 3.5256 13.397 0 4.6414-0.12729 5.45 2.8205 9.8716z" fill="#4c4030" fill-rule="evenodd" stroke="#000" stroke-linecap="round" stroke-linejoin="round" stroke-width="2.1"/>
  <path d="m415.08 260.7c1.8333-5.3004 5.2794-5.4579 6.0459-5.6496 5.0836-1.2709 12.302-0.8613 16.218 0.70512 2.5487 1.0195 2.8695 2.3604 3.5256 5.6409" fill="none" stroke="#000" stroke-linecap="round" stroke-linejoin="round" stroke-width="2.1"/>
  <path d="m433.8 229.82c2.8274 1.131 3.5256 7.0828 3.5256 11.282 0 2.6661-6.2065 3.5256-8.4614 3.5256" fill="none" stroke="#000" stroke-linecap="round" stroke-linejoin="round" stroke-width="2.1"/>
  <path d="m424.48 201.99c0 2.4322-5.9279 6.137-9.1665 7.7563-2.1208 1.0604-4.1502 2.8003-7.0511 3.5256" fill="none" stroke="#000" stroke-linecap="round" stroke-linejoin="round" stroke-width="2.1"/>
  <path d="m447.75 204.11c-0.38967 0.19483 5.1648 7.1656 7.7562 8.4614 1.7746 0.88728 4.9549-0.53361 5.6409-0.70512" fill="none" stroke="#000" stroke-linecap="round" stroke-linejoin="round" stroke-width="2.1"/>
  <rect x="412.49" y="219.62" width="14.807" height="14.102" rx="31.529" ry="14.102" fill="#302a22" fill-rule="evenodd" stroke="#000" stroke-linecap="round" stroke-linejoin="round" stroke-width="2.1"/>
  <rect x="443.16" y="220.33" width="14.807" height="14.102" rx="31.529" ry="14.102" fill="#302a22" fill-rule="evenodd" stroke="#000" stroke-linecap="round" stroke-linejoin="round" stroke-width="2.1"/>
  <path d="m401.21 704.04l61.131-1.6436v21.153l-64.657 2.3488 3.5256-21.859z" fill="#54b59d" fill-rule="evenodd" stroke="#000" stroke-linecap="round" stroke-linejoin="round" stroke-width="2.1"/>
  <path d="m387.13 575.74l63.182 24.046c-13.509 33.132-33.251 63.615-57.147 89.46 33.735 6.2035 27.381 41.099 23.498 47.29-7.5821 12.217-51.467 11.743-67.581-13.59l-32.458-33.606c-0.34066-31.05 33.25-72.367 51.952-85.2l18.554-28.4z" fill="#eceff2" fill-rule="evenodd" stroke="#000" stroke-linecap="round" stroke-linejoin="round" stroke-width="2.1619"/>
  <path d="m374.52 593.87l65.936 25.704" fill="none" stroke="#000" stroke-linecap="round" stroke-linejoin="round" stroke-width="1.9849"/>
  <path d="m365.79 606.1l62.584 35.146" fill="none" stroke="#000" stroke-linecap="round" stroke-linejoin="round" stroke-width="2.1"/>
  <path d="m351.1 622.24l69.926 31.543" fill="none" stroke="#000" stroke-linecap="round" stroke-linejoin="round" stroke-width="2.0028"/>
  <path d="m341.59 631.23l66.284 39.154" fill="none" stroke="#000" stroke-linecap="round" stroke-linejoin="round" stroke-width="2.1"/>
  <path d="m331.73 645.26l67.209 37.15" fill="none" stroke="#000" stroke-linecap="round" stroke-linejoin="round" stroke-width="2.1"/>
  <path d="m320.01 670.38l73.22 18.806" fill="none" stroke="#000" stroke-linecap="round" stroke-linejoin="round" stroke-width="2.1"/>
  <path d="m316.47 689.04l96.034 11.099" fill="none" stroke="#000" stroke-linecap="round" stroke-linejoin="round" stroke-width="2.1"/>
  <path d="m342.67 715.39l75.378-5.5493" fill="none" stroke="#000" stroke-linecap="round" stroke-linejoin="round" stroke-width="2.1"/>
  <path d="m358.98 732.23l59.104-13.939" fill="none" stroke="#000" stroke-linecap="round" stroke-linejoin="round" stroke-width="2.3427"/>
  <path d="m363.49 499.4l-9.2105 269.41c6.25 9.3202 15.789 8.443 21.711-0.65789l9.5395-268.75h-22.039z" fill="#ae8d64" fill-rule="evenodd" stroke="#000" stroke-linecap="round" stroke-linejoin="round" stroke-width="2.1"/>
  <path d="m327.3 343.48l8.5526 113.49 23.684 53.947 30.263 1.3158 21.711-57.237 7.5658-112.83-16.776-1.6447-2.3026 120.07-11.184 30.921-30.592-0.98684-5.5921-30.921-5.921-115.13-19.408-0.98685z" fill="#ae8d64" fill-rule="evenodd" stroke="#000" stroke-linecap="round" stroke-linejoin="round" stroke-width="2.1"/>
  <rect x="324.68" y="326.72" width="94.714" height="28.925" rx="31.978" ry="9.4895" fill="#bdcad8" fill-rule="evenodd" stroke="#000" stroke-linecap="round" stroke-linejoin="round" stroke-width="2.1"/>
  <path d="m346.38 420.13l-1.3158 38.816s3.7929 6.4322 6.579 7.5658c7.7959 3.1722 20.032 0.52185 27.961-2.3026 1.805-0.64302 4.3244-1.948 5.2632-3.6184 0.87161-1.5509 0.4831-7.6167 0.4831-7.6167l-7.062-0.27805-2.9605-17.763 16.293-0.61659-3.6184-7.2368-13.662-8.9229-27.961 1.9737z" fill="#fef2ec" fill-rule="evenodd" stroke="#000" stroke-linecap="round" stroke-linejoin="round" stroke-width="2.1"/>
  <path transform="matrix(.60801 0 0 .72001 169.86 94.354)" d="m446.47 346.83a6.1244 8.5742 0 1 1 -12.249 0 6.1244 8.5742 0 1 1 12.249 0z" fill="#fbfbf0" fill-rule="evenodd" stroke="#000" stroke-linecap="round" stroke-linejoin="round" stroke-width="3.1739"/>
  <path transform="matrix(.60801 0 0 .72001 169.55 121.61)" d="m446.47 346.83a6.1244 8.5742 0 1 1 -12.249 0 6.1244 8.5742 0 1 1 12.249 0z" fill="#fbfbf0" fill-rule="evenodd" stroke="#000" stroke-linecap="round" stroke-linejoin="round" stroke-width="3.1739"/>
  <path transform="matrix(.60801 0 0 .72001 168.94 146.11)" d="m446.47 346.83a6.1244 8.5742 0 1 1 -12.249 0 6.1244 8.5742 0 1 1 12.249 0z" fill="#fbfbf0" fill-rule="evenodd" stroke="#000" stroke-linecap="round" stroke-linejoin="round" stroke-width="3.1739"/>
  <path transform="matrix(.60801 0 0 .72001 168.78 170.45)" d="m446.47 346.83a6.1244 8.5742 0 1 1 -12.249 0 6.1244 8.5742 0 1 1 12.249 0z" fill="#fbfbf0" fill-rule="evenodd" stroke="#000" stroke-linecap="round" stroke-linejoin="round" stroke-width="3.1739"/>
  <path transform="matrix(.60801 0 0 .72001 168.48 197.7)" d="m446.47 346.83a6.1244 8.5742 0 1 1 -12.249 0 6.1244 8.5742 0 1 1 12.249 0z" fill="#fbfbf0" fill-rule="evenodd" stroke="#000" stroke-linecap="round" stroke-linejoin="round" stroke-width="3.1739"/>
  <path transform="matrix(.60801 0 0 .72001 167.86 222.2)" d="m446.47 346.83a6.1244 8.5742 0 1 1 -12.249 0 6.1244 8.5742 0 1 1 12.249 0z" fill="#fbfbf0" fill-rule="evenodd" stroke="#000" stroke-linecap="round" stroke-linejoin="round" stroke-width="3.1739"/>
  <path transform="matrix(.60801 0 0 .72001 167.1 244.1)" d="m446.47 346.83a6.1244 8.5742 0 1 1 -12.249 0 6.1244 8.5742 0 1 1 12.249 0z" fill="#fbfbf0" fill-rule="evenodd" stroke="#000" stroke-linecap="round" stroke-linejoin="round" stroke-width="3.1739"/>
  <path d="m382.96 419l-38.506 5.6008-6.7677-40.373-6.301-41.306 8.868-22.17 26.371-2.1003 16.102 1.867-17.036 41.773 10.035 35.005 7.2344 21.703z" fill="#54b59d" fill-rule="evenodd" stroke="#000" stroke-linecap="round" stroke-linejoin="round" stroke-width="2.1"/>
  <path d="m341.38 319.4l-0.99992 3.5322 40.045 0.53678 2.6979-7.4272-41.743 3.3582z" fill="#54b59d" fill-rule="evenodd"/>
  <path transform="matrix(0 1.1723 -1.2395 0 660.9 -219.97)" d="m390.92 225.05a7.245 6.3201 0 1 1 -14.274 -1.5311" fill="#fef2ec" fill-rule="evenodd" stroke="#000" stroke-linecap="round" stroke-linejoin="round" stroke-width="2.1"/>
 </g>
</svg>
