<?xml version='1.0' encoding='utf-8'?>
<svg xmlns="http://www.w3.org/2000/svg" version="1.1" width="1080px" height="2132px" viewBox="0 0 1080 2132"> <g id="layer1"> <g style="fill:rgb(178,241,255); fill-opacity:1.0; stroke-linejoin: miter"> <path d="M-152.001,558.0897C-152.24217,558.0897,-152.47345,558.18555,-152.64398,558.3561C-152.81451,558.5266,-152.91031,558.7579,-152.91031,558.999L-152.9093,1547.0C-152.9093,1547.5022,-152.5022,1547.9093,-152.0,1547.9093L1231.001,1547.9103C1231.2422,1547.9103,1231.4734,1547.8145,1231.6439,1547.6439C1231.8145,1547.4734,1231.9103,1547.2422,1231.9103,1547.001L1231.9093,559.0C1231.9093,558.4978,1231.5022,558.0907,1231.0,558.0907L-152.001,558.0897 Z"/> </g> <g style="fill:rgb(107,111,114); fill-opacity:1.0; stroke-linejoin: miter"> <path d="M1145.7615,1392.3207L1140.4966,1393.0505Q1103.064,1395.2562,921.4414,1396.5787Q738.56213,1397.9,490.73566,1397.6503Q254.21753,1397.3011,112.411865,1395.6074Q66.975784,1395.06,37.560944,1394.4143L12.838581,1393.7506Q-7.534876,1393.0654,-7.7639275,1392.3207Q-1.5791378,1390.0349,161.16599,1388.5173Q323.91113,1386.9996,568.9989,1386.942Q814.0867,1386.9996,976.8319,1388.5173Q1139.5769,1390.0349,1145.7615,1392.3207"/> </g> <g style="fill:rgb(51,142,190); fill-opacity:1.0; stroke-linejoin: miter"> <path d="M254.98984,1093.5448L253.71506,1130.6841Q247.9834,1190.6116,238.76376,1221.574Q224.26031,1274.7968,200.68039,1310.2152Q185.70091,1335.1152,158.21768,1354.1907Q128.32887,1371.8636,102.291336,1365.8052Q45.34498,1351.7583,11.814533,1277.1505Q4.845915,1262.9564,-2.2694206,1240.1095Q-17.014927,1187.8624,-17.603146,1176.9823Q-24.87452,1134.3588,-24.27624,1090.2998Q-22.330992,976.1227,16.703636,900.71277Q57.189644,821.4443,115.35173,819.845Q137.90804,818.4651,171.78984,842.49817Q193.89507,861.54816,214.09077,900.0096Q233.71329,939.5944,243.43253,982.9221Q255.69379,1049.3331,254.98984,1093.5448"/> </g> <g style="fill:rgb(121,184,216); fill-opacity:1.0; stroke-linejoin: miter"> <path d="M325.40533,1096.7754L324.0494,1136.2778Q319.7653,1189.3352,308.14682,1232.95L301.87912,1254.1669Q295.1531,1274.7937,286.59348,1293.06Q278.0339,1311.3263,267.64066,1327.2318Q246.71017,1359.0167,222.47633,1374.0052Q191.46121,1389.0663,184.26706,1387.0398Q170.91129,1388.2349,156.72952,1385.2313Q149.20941,1385.3782,118.83554,1364.5492Q107.10759,1354.9596,96.58398,1341.776Q75.53681,1315.4092,59.307304,1274.6661Q23.072468,1176.0977,29.212471,1069.7987Q31.91122,1016.8711,42.57363,972.15326Q47.904808,949.7942,55.2269,929.48785Q57.76162,917.82056,81.43676,873.6485Q120.78302,808.4368,176.88315,805.6621Q190.90814,806.35565,203.88606,810.95184Q235.41455,825.8563,240.46371,833.51996Q263.2782,854.419,281.9041,890.9272Q300.53015,927.4353,311.19247,972.15326Q315.10248,982.05,322.70654,1043.8479Q325.05127,1069.2855,325.40533,1096.7754"/> </g> <g style="fill:rgb(121,184,216); fill-opacity:1.0; stroke-linejoin: miter"> <path d="M432.37054,812.8927L158.34778,811.4943Q92.55043,921.2927,69.33489,981.38153Q47.970665,1041.3435,47.751335,1053.0593Q43.12275,1076.7769,42.781563,1100.2014Q42.57029,1123.6176,46.64637,1146.7407Q46.589455,1158.4457,66.57242,1215.5853Q88.40679,1272.5984,151.7179,1373.5829L432.00293,1373.9559L432.37054,812.8927"/> </g> <g style="fill:rgb(51,142,190); fill-opacity:1.0; stroke-linejoin: miter"> <path d="M559.72577,1090.5282L558.32666,1131.2941Q548.3789,1254.4927,500.11304,1328.3569Q451.5133,1402.1615,385.65402,1388.212Q322.79974,1368.7139,285.11508,1274.1097Q273.0406,1243.5294,265.22366,1207.4678L258.65378,1170.3936Q253.23944,1132.1279,253.17871,1090.5283Q254.82224,962.86584,298.07153,878.0945Q341.3208,793.32324,406.4525,790.1017Q471.58395,793.32336,514.83325,878.0945Q558.0822,962.86584,559.72577,1090.5282"/> </g> <g style="fill:rgb(169,226,255); fill-opacity:1.0; stroke-linejoin: miter"> <path d="M555.235,1082.542L553.97217,1119.3319Q549.91864,1168.5154,539.1615,1209.3672Q526.3909,1256.232,506.51587,1289.1614Q488.65503,1320.9734,459.37268,1340.7385Q433.0547,1356.2998,409.751,1353.2872Q376.01123,1345.538,358.41095,1328.0251Q348.16592,1319.0078,339.06665,1307.0281Q317.32043,1274.4865,314.34576,1264.423Q300.53738,1237.2439,286.15604,1172.0098Q278.30835,1129.0986,278.59412,1079.3286Q277.67416,1065.5759,283.96097,1008.19275Q287.1108,985.9033,292.07483,965.5098Q302.00317,924.7238,319.1888,891.52313Q328.1011,874.0732,337.87817,860.423Q363.07742,829.62195,369.15485,828.0213Q388.75098,812.11584,422.01373,811.4221Q477.26746,816.5863,514.72064,890.8266Q530.8685,920.93604,543.78644,972.9593Q554.58093,1026.4341,555.235,1082.542"/> </g> <g style="fill:rgb(51,142,190); fill-opacity:1.0; stroke-linejoin: miter"> <path d="M482.1522,1082.423L481.55582,1099.8042Q476.97803,1152.8018,457.1938,1183.3075Q438.41953,1211.9891,413.4201,1210.333Q399.25137,1207.0784,391.10696,1200.1797Q379.7941,1191.3727,369.4098,1170.987Q362.7704,1158.9308,355.02933,1124.6902Q350.96106,1101.485,351.43185,1076.999Q353.67203,1021.4636,372.5267,988.6029Q376.40677,979.07184,392.5188,963.19495Q401.6252,955.07,419.21344,954.3353Q422.37347,953.59906,435.68167,959.58777Q440.85965,962.5473,445.62238,967.11847Q454.30945,974.6161,464.68832,995.13794Q471.3186,1008.8047,476.74344,1030.6515Q482.41473,1061.6755,482.1522,1082.423"/> </g> <g style="fill:rgb(255,255,255); fill-opacity:1.0; stroke-linejoin: miter"> <path d="M708.5853,1331.4929L749.71967,1336.921Q754.76825,1348.3718,753.5519,1352.3444Q752.97266,1355.4646,748.687,1357.1857Q747.2261,1357.7867,745.3531,1358.3176Q733.4328,1361.2719,731.3321,1362.149Q729.2722,1362.8599,726.5924,1363.9778Q715.1705,1369.0033,714.1322,1369.3243Q710.2985,1370.8278,707.1118,1371.6206Q695.04584,1374.4958,683.9072,1369.729Q678.48254,1367.2428,676.2475,1363.3436Q674.1652,1359.504,676.306,1356.0135Q677.6438,1353.8341,681.2353,1352.0144Q682.6675,1351.2736,685.0029,1350.3455Q695.283,1346.5884,696.22504,1346.068Q699.553,1344.6216,701.62476,1343.0343Q707.0213,1338.8959,708.5738,1331.5422 Z"/> </g> <g style="fill:rgb(255,255,255); fill-opacity:1.0; stroke-linejoin: miter"> <path d="M659.74585,1304.8011Q661.2913,1303.707,664.1131,1303.2795Q665.2082,1303.1107,666.8888,1303.0258Q674.1491,1302.8774,674.8236,1302.7429Q677.234,1302.5469,679.3165,1301.9016Q684.498,1300.322,689.84015,1295.4954L721.76746,1312.9451Q718.9013,1316.176,716.841,1317.5388Q713.9997,1319.5165,710.37036,1319.552Q709.1292,1319.5809,707.63196,1319.4692L699.42523,1318.6593Q697.05273,1318.4692,694.8974,1318.4431Q691.9478,1318.4001,688.24713,1318.5535Q670.3377,1319.5779,670.2351,1319.4459Q665.3627,1319.5292,662.29175,1318.8441Q656.96533,1317.7377,656.2152,1313.417Q655.5715,1308.0222,659.74384,1304.8022 Z"/> </g> <g style="fill:rgb(78,87,91); fill-opacity:1.0; stroke-linejoin: miter"> <path d="M715.28754,822.73285Q723.6752,822.0559,732.9221,825.08185Q741.1972,827.9859,744.0017,832.6684Q745.61237,835.1459,746.57056,839.2985Q749.1073,850.4816,748.878,853.27844Q749.0823,859.2547,744.24774,868.20917L693.26996,852.7188Q692.5067,847.83997,693.7873,845.0249Q693.69696,844.59467,698.6969,836.72736L701.65314,831.22864Q702.3823,829.9681,703.14124,828.93005Q706.8775,823.42865,715.253,822.73596 Z"/> </g> <g style="fill:rgb(0,0,0); fill-opacity:1.0; stroke-linejoin: miter"> <path d="M729.9512,861.0754L739.86725,864.4338L733.4464,872.33405L730.36707,871.9576L729.9513,861.07715 Z"/> </g> <g style="fill:rgb(255,194,165); fill-opacity:1.0; stroke-linejoin: miter"> <path d="M700.19135,849.99994Q706.82336,850.0804,711.7018,851.8478Q713.3578,852.45013,715.31177,853.48517Q722.6935,857.82196,723.4855,858.0885Q726.0058,859.3474,730.8612,861.25775L730.8736,871.444L732.9175,871.8171Q736.11774,864.1241,739.2099,863.7585Q741.6207,863.29016,743.5147,864.55835Q745.3086,865.84357,745.32666,867.896Q745.3513,869.9477,743.5625,873.2918Q742.7283,875.13934,736.9908,883.1836Q735.913,884.91455,735.409,886.4402Q734.0363,890.2876,734.915,899.10376L700.11,908.8476L701.10474,902.61273Q695.50616,901.132,693.7809,896.71356Q692.69244,894.245,691.7724,889.52814Q689.62756,877.96814,689.9705,877.2932Q689.6816,874.1472,693.28424,861.26715L692.877,851.1667Q695.9077,850.00433,700.1294,849.99994 Z"/> </g> <g style="fill:rgb(78,87,91); fill-opacity:1.0; stroke-linejoin: miter"> <path d="M736.08887,897.90796L739.63226,909.98865Q750.2989,917.26996,753.4991,926.0209Q757.3025,936.1278,757.8269,951.58307Q757.9482,958.8152,757.06757,961.3293Q749.212,979.90137,741.772,1013.8949Q736.7806,1037.2241,736.17566,1052.4921Q735.84863,1062.6042,737.49426,1070.7573Q737.9919,1075.3525,744.48376,1092.6234Q745.4016,1095.7299,745.6921,1100.0958Q746.04694,1106.0952,744.16284,1115.3759L737.6254,1138.6752Q744.3905,1177.1632,745.72076,1199.3961Q746.9204,1211.0066,746.2765,1263.2883Q746.1087,1269.0203,748.72955,1289.773Q748.38666,1310.3722,748.7682,1311.6274Q748.9545,1314.6946,749.8049,1318.5421L753.3489,1330.9005Q754.1147,1334.1443,754.0699,1335.2515Q754.5072,1341.7327,744.82623,1347.3796L705.0018,1332.1929L711.7537,1315.559Q696.8611,1312.606,686.36633,1295.4178L694.2049,1288.4982L688.96216,1259.9271Q677.7288,1227.0651,673.64386,1199.1683Q668.90466,1170.3257,663.77234,1092.8228L654.4191,1090.6243L658.4317,1020.0985L653.6579,1008.1184Q634.15955,1001.1069,634.61536,991.78204Q634.5851,983.3133,640.6394,974.3207L649.18097,968.58L654.11316,963.73364Q657.7714,960.3564,685.572,921.7887L697.81,913.3438Q699.31976,911.45483,699.6469,907.3756L735.93274,897.94836 Z"/> </g> <g style="fill:rgb(255,255,255); fill-opacity:1.0; stroke-linejoin: miter"> <path d="M733.8571,868.23694Q734.119,868.2156,734.2209,868.47784Q734.27386,868.7463,734.03516,868.87225L723.8053,872.4679Q723.54285,872.49005,723.4408,872.2276Q723.38745,871.95905,723.62537,871.833L733.8546,868.2374 Z"/> </g> <g style="fill:rgb(255,255,255); fill-opacity:1.0; stroke-linejoin: miter"> <path d="M734.86005,881.5813Q735.09485,881.6021,735.1697,881.7901Q735.24445,881.99207,735.08795,882.1581L723.6684,891.4661Q723.5657,891.53644,723.4759,891.53455Q723.2441,891.5299,723.15265,891.31464Q723.0849,891.11066,723.2484,890.94904L734.65094,881.6554Q734.7514,881.582,734.8413,881.5817 Z"/> </g> <g style="fill:rgb(242,251,255); fill-opacity:1.0; stroke-linejoin: miter"> <path d="M691.6028,863.1702L725.6447,870.46515L723.69934,873.5263L722.7773,876.2273Q721.41473,880.42035,721.6608,882.94196Q721.7143,886.6047,727.4396,892.1637Q719.47003,897.54974,715.671,899.66785Q711.1368,902.2396,707.9374,903.2385Q701.443,905.33844,697.0822,901.7988Q691.52094,897.3355,689.392,883.44775Q687.5364,871.2809,691.5982,863.1816 Z"/> </g> <g style="fill:rgb(0,0,0); fill-opacity:0.14117648; stroke-linejoin: miter"> <path d="M733.5509,912.5547L733.5473,912.5573L733.5461,912.5579L733.5509,912.5547 Z M733.53613,912.56555L711.28534,929.0357L708.33466,929.9988L708.4859,929.8835Q713.93225,925.8392,733.53436,912.56555 Z M708.3234,930.0039Q705.65967,931.9836,704.7998,932.9011L704.29486,933.49756Q703.4177,935.05475,702.69824,935.82227Q701.5114,937.2148,698.70074,940.0208Q702.6259,931.82446,708.27997,930.0194L708.32135,930.0039 Z M698.6809,940.0437Q698.0198,941.25836,695.45483,946.6854Q694.9928,947.61365,694.75476,947.83716Q694.68024,947.9176,694.62897,947.9176Q694.25165,947.9176,695.1273,943.55066L698.6414,940.08075L698.6787,940.0437 Z M750.34467,974.2971L750.2919,974.33765L750.2916,974.3387L750.34467,974.2971 Z M704.846,939.7234L675.0046,976.0529Q680.39343,967.36646,685.9866,960.6353Q691.98645,953.3245,704.8188,939.7514L704.846,939.7234 Z M670.3514,954.7068L666.31177,976.8845L662.6628,976.1173L670.34753,954.7174L670.3514,954.7068 Z M674.5412,976.431Q672.06805,980.1479,668.4375,980.1479Q666.97174,980.1479,665.3175,979.5425L665.29,979.5321L674.5387,976.431 Z M653.21686,972.2275Q657.99927,975.68304,660.2484,977.007Q663.1575,978.7648,665.2864,979.53125L662.7432,980.37964Q653.0427,972.25085,653.21436,972.23596L653.21436,972.2275 Z M668.70386,987.02673Q665.29926,992.9847,662.10516,996.62726Q659.7444,999.32874,657.46533,1000.8711L668.7004,987.0275L668.70154,987.02673 Z M657.4528,1000.88696L654.5525,1004.4602L649.30023,1003.5051Q648.8166,1003.52515,648.3412,1003.52515Q646.6425,1003.52515,645.04803,1003.2665Q642.746,1002.8651,642.3931,1002.4865Q642.4228,1002.4583,642.5819,1002.4583Q643.54596,1002.4583,649.2565,1003.49695Q649.2672,1003.49756,649.2789,1003.49756Q649.5657,1003.49756,650.328,1003.423Q654.37006,1003.0045,657.42,1000.909L657.4528,1000.88696 Z M657.55457,1007.86414L657.55457,1007.86487Q662.60864,1017.4508,666.7745,1021.2052Q665.19354,1020.11145,662.75604,1018.15845L657.55194,1007.86414 Z M660.40186,1020.7444Q661.16895,1021.00867,661.7407,1021.2052L661.7386,1021.2058Q661.16766,1021.0089,660.4026,1020.74585L660.3996,1020.7444 Z M666.7956,1021.2217Q669.6571,1023.2174,671.82245,1023.90735Q673.62946,1024.494,675.79584,1024.494Q676.29333,1024.494,676.81,1024.4629L676.8125,1024.4639Q676.07166,1024.5345,675.35626,1024.5345Q670.493,1024.5345,666.8017,1021.22974L666.79315,1021.2217 Z M746.32556,977.36725L680.5092,1027.64L663.8092,1021.9164L663.8115,1021.91736Q673.04926,1025.0306,674.98425,1025.0306Q675.13086,1025.0306,675.2355,1025.0127Q675.30835,1025.0142,675.38245,1025.0142Q678.6552,1025.0142,684.42175,1021.8036Q695.00305,1016.50146,746.3237,977.36725 Z M687.4628,1023.59106L674.53424,1092.8457Q675.57513,1084.0421,675.8736,1079.8445Q676.0421,1077.5809,676.0971,1075.699Q676.1327,1075.0947,676.14484,1070.4327Q676.1567,1069.4811,676.2014,1068.5759Q676.29297,1066.6624,676.6151,1064.9102Q676.95984,1063.011,677.71735,1060.8909Q677.6744,1060.7615,681.24603,1052.11Q682.0411,1050.0167,682.43274,1048.5006Q682.9249,1046.627,683.0264,1044.7529Q683.07996,1043.9055,683.06335,1042.7488Q682.84467,1037.7924,682.90485,1037.2915Q682.9408,1035.5833,683.2494,1034.0862Q684.1312,1029.7808,687.4459,1023.62195L687.4628,1023.59106 Z M742.5503,1091.5942Q729.48517,1094.8593,718.91895,1096.5116L718.8906,1096.5156L742.5487,1091.5942 Z M665.1033,1093.4224Q666.1673,1093.4224,670.7852,1094.3002Q676.4058,1095.3588,689.62494,1098.19Q682.53827,1097.7247,675.29645,1096.3683Q666.60425,1094.6521,664.78546,1093.496L664.78595,1093.4917Q664.80444,1093.4224,665.1033,1093.4224 Z M718.8566,1096.5227L700.06396,1100.4326L689.69293,1098.2045L689.67554,1098.2003L689.6776,1098.2008Q693.02045,1098.4515,696.6423,1098.4515Q706.67755,1098.4515,718.85486,1096.5227 Z M675.6437,1128.1947L682.5845,1172.9077L678.7195,1157.1584L675.6544,1128.3052L675.6437,1128.1947 Z M682.6098,1173.0602Q682.6101,1173.062,682.6106,1173.0636L682.60925,1173.0645L682.6098,1173.0602 Z M682.6139,1173.077Q699.30914,1240.8934,704.37384,1267.8479Q698.3487,1255.0294,694.15137,1236.3077Q689.4101,1215.7716,682.61145,1173.077 Z M704.39545,1267.896Q708.689,1276.6862,709.1703,1280.8228Q710.1259,1286.7118,708.84094,1297.4822Q707.92834,1286.0387,704.3953,1267.9075L704.3935,1267.896 Z M708.8512,1297.6093Q709.5793,1306.661,708.9686,1312.0847Q708.5446,1315.3652,707.9415,1315.9108Q707.8317,1315.9658,707.73645,1315.9658Q707.161,1315.9658,707.1189,1313.9591Q706.8448,1313.0591,708.8189,1297.8958L708.8512,1297.6093 Z"/> </g> <g style="fill:rgb(125,139,150); fill-opacity:1.0; stroke-linejoin: miter"> <path d="M419.76138,1035.1621L419.7612,1035.1625L419.76178,1035.1625L419.76138,1035.1621"/> </g> <g style="fill:rgb(255,194,165); fill-opacity:1.0; stroke-linejoin: miter"> <path d="M896.9651,1081.1753L896.96564,1081.1752Q901.8468,1070.6952,902.69727,1066.6166Q903.4406,1063.205,903.4053,1062.5887Q903.5981,1061.319,903.5672,1055.1156Q903.7841,1053.4753,903.9991,1053.4816L904.30725,1053.2311Q904.67365,1053.0651,905.2223,1053.215Q906.35455,1053.5319,907.80475,1054.9104Q910.0672,1057.0212,911.4968,1060.7639Q912.4521,1063.4822,912.56384,1067.4565Q912.6753,1071.5297,911.8959,1078.5675Q913.0417,1088.9839,913.1375,1092.8282Q913.2386,1099.146,912.98193,1099.9755Q912.5613,1104.2429,910.7554,1106.3419L909.7289,1107.1978Q908.598,1107.8903,907.1213,1108.0405Q901.952,1108.5671,889.6746,1102.8889L896.9651,1081.1753"/> </g> <g style="fill:rgb(255,194,165); fill-opacity:1.0; stroke-linejoin: miter"> <path d="M889.1127,1081.1276L889.79816,1079.6345Q893.6527,1071.3942,894.8452,1066.569Q895.1945,1065.1879,895.3937,1063.856Q895.4438,1063.5991,895.56854,1062.371Q895.7503,1061.0814,895.69116,1055.5397Q895.76355,1054.1626,895.92285,1053.8617Q896.802,1051.972,899.9527,1054.8632Q901.7109,1056.7579,902.00665,1057.3813Q902.6536,1058.3727,903.17346,1059.5282Q904.12256,1061.4899,904.54346,1064.8961Q905.0689,1069.6665,904.0437,1078.5195L904.7078,1094.3245L889.1127,1081.1276"/> </g> <g style="fill:rgb(254,186,155); fill-opacity:1.0; stroke-linejoin: miter"> <path d="M824.334,1040.325L824.334,1040.3259L824.334,1040.325L824.334,1040.3259"/> </g> <g style="fill:rgb(0,0,0); fill-opacity:0.99607843; stroke-linejoin: miter"> <path d="M702.8575,1071.149L702.8579,1071.1495L702.85803,1071.1495L702.8575,1071.149"/> </g> <g style="fill:rgb(125,139,150); fill-opacity:0.99607843; stroke-linejoin: miter"> <path d="M553.30084,1077.2313L553.3013,1077.2317L553.3018,1077.2313L553.30084,1077.2317"/> </g> <g style="fill:rgb(0,0,0); fill-opacity:0.99607843; stroke-linejoin: miter"> <path d="M449.80997,1095.5671L449.67932,1095.5908Q435.12454,1096.8356,432.83148,1097.3904Q430.22733,1097.8352,428.18552,1098.4674Q420.89764,1101.0558,418.28687,1101.5673Q412.84238,1102.6947,409.56567,1102.861Q402.44547,1103.2228,399.45886,1102.59Q397.48788,1102.2906,395.6901,1101.7341L393.95947,1101.102Q392.29242,1100.3927,390.8898,1099.4052Q388.0881,1097.406,386.3035,1094.5688Q384.6964,1092.5588,383.3395,1086.7715Q382.62854,1082.8015,383.18805,1078.0931Q383.81335,1072.7773,386.33115,1064.2527Q386.6276,1061.2445,386.52823,1059.818Q387.00693,1056.1523,381.29224,1053.9012Q386.3181,1050.9698,388.9624,1050.7004Q393.13388,1049.7771,403.26346,1053.3888L429.90704,1069.5361L449.80997,1095.5671"/> </g> <g style="fill:rgb(255,194,165); fill-opacity:1.0; stroke-linejoin: miter"> <path d="M455.79935,1097.8899L455.80035,1097.8895L445.1427,1096.2316L441.0874,1096.3934C440.98224,1093.4156,440.31375,1091.0659,438.9818,1089.4238C437.73358,1087.8851,435.84195,1086.7068,433.35587,1085.9681C431.23776,1085.3386,429.67258,1085.164,428.7022,1085.1967C428.07346,1085.2181,427.44705,1085.1946,426.8302,1085.2709C422.8877,1085.7609,420.81354,1085.9799,420.6001,1085.8654C419.591,1085.9203,418.30844,1085.7692,417.00305,1084.954C414.0049,1083.083,413.1432,1081.0244,413.94537,1079.1307C414.15674,1078.6315,414.75418,1078.0062,415.8291,1077.184C416.1945,1076.9043,418.09473,1075.9655,421.58768,1074.3756C422.43848,1073.9883,422.75015,1073.5732,422.47067,1073.3811C421.93768,1073.0155,421.27557,1072.8788,420.58066,1072.7834C415.52942,1072.0916,412.1019,1071.563,410.30762,1071.169C407.017,1070.447,405.1636,1069.8137,404.60657,1069.6222C401.39307,1068.5164,398.47717,1066.546,396.7481,1062.9946C394.20584,1057.7732,394.46765,1053.655,396.71454,1051.0126C402.9559,1048.7692,407.0754,1047.686,409.05698,1047.5138C411.25516,1047.3221,413.39716,1047.861,415.50876,1049.3767C422.2007,1044.9183,426.31683,1042.8932,427.83597,1042.7438C429.71405,1042.5596,430.643,1044.0894,430.70462,1047.8835C433.45218,1047.252,435.17667,1047.1116,435.9258,1047.2853C436.76172,1047.4794,437.40427,1048.1697,437.8182,1049.5345C437.98956,1048.5469,438.68732,1048.145,439.8966,1048.4037C440.96698,1048.6333,442.72958,1049.38,445.20084,1050.5696C448.09143,1050.313,450.21512,1050.3469,451.50555,1050.8524C452.75372,1051.3407,453.4383,1051.9808,453.63333,1052.596C454.29782,1053.5088,454.669,1055.8794,454.7471,1059.7087L452.53558,1066.1926L471.74988,1078.3253L455.79935,1097.8899 Z"/> </g> <g style="fill:rgb(0,0,0); fill-opacity:0.99607843; stroke-linejoin: miter"> <path d="M458.685,1042.4843L458.68506,1042.4835L458.68536,1042.4843L458.68506,1042.4835"/> </g> <g style="fill:rgb(255,194,165); fill-opacity:1.0; stroke-linejoin: miter"> <path d="M452.52753,1071.0435L452.01157,1073.5425Q447.2284,1092.4043,452.17905,1105.207Q454.0854,1109.8442,458.8321,1113.82Q463.57867,1117.7959,472.56314,1120.6206Q492.62952,1126.2769,531.6663,1126.0007Q555.3395,1126.0283,583.2862,1124.2474Q600.09375,1123.2264,616.655,1120.2279Q618.7623,1082.5073,614.77325,1075.2213Q613.4014,1070.8765,611.0551,1067.63L608.41113,1064.719Q605.6292,1062.1661,601.0176,1060.8654Q595.2953,1059.0435,582.8152,1060.1351Q578.60626,1060.5522,574.15753,1061.2324Q551.44775,1065.1295,547.04565,1065.6973Q537.18506,1066.9705,532.4088,1066.8862Q528.103,1067.0924,518.38824,1066.103Q514.94934,1065.8253,494.9442,1062.2125Q492.53497,1061.8456,488.98505,1061.8473Q487.37646,1061.6047,481.32767,1063.1748Q479.2277,1063.4366,468.143,1069.6141Q467.07803,1070.2771,464.24716,1070.8318Q462.20786,1071.0613,459.9665,1070.2585Q457.62338,1069.4547,453.17767,1066.1426Q452.63013,1065.8652,452.30737,1066.0115Q451.41638,1066.57,452.52753,1071.0435"/> </g> <g style="fill:rgb(0,0,0); fill-opacity:0.99607843; stroke-linejoin: miter"> <path d="M526.80505,1185.8859L526.80505,1185.8862L526.8053,1185.8865L526.80505,1185.8859"/> </g> <g style="fill:rgb(255,81,0); fill-opacity:0.09411765; stroke-linejoin: miter"> <path d="M490.22076,1101.4077L495.22156,1101.8542Q510.25616,1103.2264,524.99927,1104.3123Q537.2038,1105.1368,539.56036,1105.2194Q543.5601,1105.4434,550.6738,1105.685Q561.1782,1106.0193,573.93335,1105.9144Q582.88043,1105.8712,603.2619,1105.2848L490.22076,1101.4077"/> </g> <g style="fill:rgb(255,81,0); fill-opacity:0.99607843; stroke-linejoin: miter"> <path d="M581.7152,990.5588L581.7152,990.559L581.7152,990.5595L581.7152,990.5588"/> </g> <g style="fill:rgb(255,81,0); fill-opacity:0.99607843; stroke-linejoin: miter"> <path d="M660.8951,1083.9797L660.8951,1083.9802L660.8954,1083.9802Q698.7195,1082.7126,736.544,1081.4448L660.8951,1083.9797"/> </g> <g style="fill:rgb(255,194,165); fill-opacity:1.0; stroke-linejoin: miter"> <path d="M676.129,1065.4636L671.63916,1120.9777Q685.34216,1119.4325,695.6354,1118.6433Q696.74927,1118.4025,730.594,1116.6545Q740.825,1115.9021,743.0773,1115.6237Q753.93695,1114.438,756.279,1114.0231L787.58344,1109.2626Q797.99384,1108.0375,799.696,1108.0767Q803.6567,1107.7343,811.02966,1108.2053Q812.6804,1108.1151,831.86804,1111.0828Q839.2359,1111.8845,843.302,1111.8126Q859.2109,1111.5835,878.7699,1108.5842L898.55664,1105.5858L905.96484,1087.3647Q858.23206,1087.7015,841.2169,1086.0281Q828.43115,1084.8873,816.88434,1081.6597Q814.7501,1081.0785,812.6652,1080.4889Q809.4678,1077.7981,806.84845,1076.7632Q804.8171,1075.9,801.899,1075.5211Q793.90906,1074.6544,773.8556,1078.0164L676.129,1065.4636"/> </g> <g style="fill:rgb(253,186,155); fill-opacity:0.99607843; stroke-linejoin: miter"> <path d="M750.35803,1105.3818L750.35815,1105.3822L750.35834,1105.383L750.35803,1105.3818"/> </g> <g style="fill:rgb(255,194,165); fill-opacity:1.0; stroke-linejoin: miter"> <path d="M670.9234,1057.7476L672.34906,1110.9445Q721.7371,1109.5048,737.9899,1107.7845Q751.0811,1106.8052,786.21436,1101.16Q794.47894,1100.2748,795.6141,1100.2788Q800.79047,1100.0565,806.17035,1100.5846L826.14307,1103.3477Q834.4692,1104.2305,839.43915,1104.1406Q849.06226,1104.1615,871.0038,1101.2427Q880.0487,1099.9767,893.3509,1097.8704L900.75916,1079.6493Q863.7764,1080.1843,836.01105,1078.3126Q824.6461,1077.2988,814.26,1074.6356L807.4595,1072.7736Q802.3877,1068.3055,796.6934,1067.8062Q793.4926,1067.3873,787.59753,1067.8337Q783.93396,1067.925,768.64966,1070.3008L670.9234,1057.7476"/> </g> <g style="fill:rgb(0,0,0); fill-opacity:0.99607843; stroke-linejoin: miter"> <path d="M636.563,1227.196L636.563,1227.1965L636.56323,1227.1971L636.563,1227.196"/> </g> <g style="fill:rgb(0,0,0); fill-opacity:0.99607843; stroke-linejoin: miter"> <path d="M725.586,1278.1815L725.586,1278.1821L725.5861,1278.1827L725.586,1278.1815"/> </g> <g style="fill:rgb(0,0,0); fill-opacity:0.99607843; stroke-linejoin: miter"> <path d="M621.1195,1126.9686L621.1195,1126.969L621.1195,1126.9696L621.1195,1126.9686"/> </g> <g style="fill:rgb(254,186,155); fill-opacity:0.99607843; stroke-linejoin: miter"> <path d="M604.19745,1104.8964L604.45306,1104.2919Q606.5492,1099.3492,609.00305,1098.1415Q613.5676,1095.6649,615.9136,1097.1401Q617.0583,1097.9391,617.0506,1100.4303Q617.0747,1102.382,616.1557,1106.9413Q619.9359,1106.6278,621.2091,1107.3517Q623.08716,1108.2789,623.75507,1110.3749Q625.17633,1114.3636,623.5025,1118.9807Q621.5386,1123.469,614.7045,1123.7896Q611.35406,1124.018,607.11786,1123.7327L581.2132,1121.8641L599.1062,1113.7511L604.19745,1104.8964"/> </g> <g style="fill:rgb(254,186,155); fill-opacity:0.99607843; stroke-linejoin: miter"> <path d="M614.79364,1094.3464L614.7935,1094.3469L614.7935,1094.3464L614.79364,1094.3469"/> </g> <g style="fill:rgb(255,0,0); fill-opacity:0.07450981; stroke-linejoin: miter"> <path d="M677.04004,1070.5337L686.00476,1071.5132Q703.2221,1073.1445,712.8478,1073.8124Q722.4821,1074.4476,724.4278,1074.5017Q728.29956,1074.686,732.191,1074.7933Q740.88214,1075.0432,752.4263,1074.8644Q762.8817,1074.6946,779.4049,1074.0626L677.04004,1070.5337"/> </g> <g style="fill:rgb(100,194,245); fill-opacity:1.0; stroke-linejoin: miter"> <path d="M553.6623,1142.2365L720.0458,1142.2372L886.4296,1142.2374Q886.4296,1185.8926,886.4296,1229.5474Q720.0458,1229.5479,553.6623,1229.5487Q553.6623,1185.8923,553.6623,1142.2365"/> </g> <g style="fill:rgb(100,194,245); fill-opacity:1.0; stroke-linejoin: miter"> <path d="M592.94,1223.7905L720.0459,1223.791L847.1521,1223.7916Q847.15204,1305.3453,847.15204,1386.8992Q720.0459,1386.8997,592.94,1386.9003Q592.94,1305.3453,592.94,1223.7905"/> </g> <g style="fill:rgb(255,255,255); fill-opacity:1.0; stroke-linejoin: miter"> <path d="M374.8711,1094.3245L681.2478,1094.3251L987.6249,1094.3253Q987.6249,1121.3146,987.6249,1148.3037Q681.2478,1148.3038,374.8711,1148.3046Q374.8711,1121.3146,374.8711,1094.3245"/> </g> <g style="fill:rgb(255,255,255); fill-opacity:1.0; stroke-linejoin: miter"> <path d="M483.5999,1057.088L491.05566,1055.7446Q538.4641,1046.27,582.79083,1047.7924Q593.2681,1048.0378,617.27783,1050.3245Q718.2644,1062.1466,715.5662,1060.9779Q729.2321,1061.9423,743.35913,1062.3208Q746.41534,1062.5774,789.623,1062.8499Q800.2653,1063.101,803.6069,1063.4506Q814.0287,1064.0754,822.8301,1067.5947Q829.2372,1070.2885,834.96136,1076.8083L832.2628,1212.0223Q794.2562,1214.8464,731.4471,1219.9427Q716.2152,1220.9999,699.8075,1220.6372Q684.2042,1220.1583,670.65094,1218.2402Q614.8215,1208.8187,601.96533,1207.6472Q585.0449,1205.8792,572.5291,1206.172Q535.2694,1207.0673,482.71704,1220.0104Q478.41925,1141.5924,483.5999,1057.088"/> </g> <g style="fill:rgb(255,255,255); fill-opacity:1.0; stroke-linejoin: miter"> <path d="M553.6623,1313.0206L720.046,1313.0214L886.4296,1313.0219Q886.4296,1351.9742,886.4296,1390.9265Q720.046,1390.9271,553.6623,1390.9277Q553.6623,1351.9742,553.6623,1313.0206"/> </g> <g style="fill:rgb(15,138,203); fill-opacity:1.0; stroke-linejoin: miter"> <path d="M143.09918,813.6512L143.09918,813.6524C140.64198,814.7396,138.21423,815.9376,135.81583,817.24524C135.98747,817.2982,136.16928,817.3273,136.35773,817.3281L154.8105,817.41406L154.8098,817.41504C154.80972,817.4143,154.80972,817.41394,154.8098,817.41406L217.52658,817.7056L217.52652,817.7067L354.02728,818.3404L354.02756,818.34143C354.0275,818.3405,354.0274,818.3403,354.0274,818.3404L395.68216,818.53406L395.9486,823.63477L395.94843,823.6358C395.9475,823.63525,395.94653,823.63513,395.94565,823.63556L405.33832,984.3482C405.38507,985.2421,414.3522,1022.05994,410.84164,990.3843C410.83273,990.3036,403.38168,949.8935,403.39334,949.9719C409.13052,988.7072,414.06036,980.9575,414.30902,980.1825C414.37985,979.9616,408.50952,984.4928,408.4983,984.2749L399.61517,822.7368L399.612,822.738L399.29407,816.5913C399.24268,815.6097,398.43402,814.8387,397.45084,814.83405L359.47113,814.6574L359.46838,814.6583L210.1371,813.9629L210.1357,813.96387L157.01852,813.7158L157.01778,813.71686L143.09981,813.6512L143.09918,813.6524 Z"/> </g> <g style="fill:rgb(15,138,203); fill-opacity:1.0; stroke-linejoin: miter"> <path d="M368.27237,1109.213L368.27237,1109.213L368.27228,1109.2137C368.1859,1109.9144,367.7089,1110.5056,367.04184,1110.7377L367.04184,1110.7377L262.01096,1147.3147C261.81622,1147.3824,261.61157,1147.4172,261.40543,1147.418L261.40543,1147.418L22.10173,1147.9666C21.077713,1147.9688,20.245667,1147.1407,20.24332,1146.1167C20.24096,1145.0927,21.069237,1144.2607,22.09322,1144.2584L22.09322,1144.2584L261.39703,1143.7095L260.79144,1143.8125L365.82233,1107.2356L364.59186,1108.7598L364.59192,1108.7589C364.7173,1107.7427,365.64288,1107.0205,366.65906,1107.1459C367.67545,1107.2714,368.39783,1108.1965,368.27237,1109.213 Z"/> </g> <g style="fill:rgb(15,138,203); fill-opacity:1.0; stroke-linejoin: miter"> <path d="M549.0969,1010.4669L480.04034,1053.2451C479.46555,1053.6017,479.108,1054.2595,479.16922,1054.9783C479.224,1055.6208,479.60825,1056.1886,480.18433,1056.4778C480.44693,1056.6099,480.73215,1056.6755,481.0166,1056.6755C481.35632,1056.6755,481.69498,1056.5823,481.99316,1056.3975L549.6499,1014.4863Q549.3849,1012.4696,549.1016,1010.4669 Z"/> </g> <g style="fill:rgb(15,138,203); fill-opacity:1.0; stroke-linejoin: miter"> <path d="M434.50623,1187.4452L434.50623,1187.4464L434.50623,1187.4478C434.37122,1187.4452,431.08072,1183.0498,432.89877,1193.3539C436.51587,1213.8549,426.57605,1164.7251,431.11652,1184.5183L448.79788,1369.8568C449.9797,1369.1864,451.15582,1368.4868,452.32626,1367.7577L435.09027,1189.1202C435.08292,1189.0397,437.08173,1151.3403,437.9241,1180.6897C437.94934,1181.5736,437.08374,1174.6927,434.46765,1199.1384L432.99945,1194.0714L434.50623,1187.4452 Z"/> </g> <g style="fill:rgb(51,142,190); fill-opacity:1.0; stroke-linejoin: miter"> <path d="M628.9721,1249.9323L717.1237,1249.9325L805.2752,1249.9331Q805.2752,1260.3768,805.2752,1270.8208Q717.1237,1270.8209,628.9721,1270.8213Q628.9721,1260.3768,628.9721,1249.9323"/> </g> </g> </svg>