<?xml version="1.0" encoding="UTF-8"?>
<svg viewBox="0 0 609.06201 64" xmlns="http://www.w3.org/2000/svg" xmlns:xlink="http://www.w3.org/1999/xlink">
 <defs>
  <filter id="k">
   <feGaussianBlur stdDeviation=".25678"/>
  </filter>
  <filter id="j" x="-.02542" y="-.42903" width="1.0508" height="1.8581">
   <feGaussianBlur stdDeviation="2.92404"/>
  </filter>
  <filter id="i" x="-.02216" y="-.77241" width="1.0443" height="2.5448">
   <feGaussianBlur stdDeviation="1.81056"/>
  </filter>
  <filter id="h" x="-.02243" y="-.58473" width="1.0449" height="2.1694">
   <feGaussianBlur stdDeviation="1.76185"/>
  </filter>
  <linearGradient id="e" x1="157.99" x2="157.34" y1="636.29" y2="645.68" gradientUnits="userSpaceOnUse" spreadMethod="reflect">
   <stop stop-color="#636363" offset="0"/>
   <stop stop-color="#d7d7d7" offset="1"/>
  </linearGradient>
  <linearGradient id="d" x2="0" y1="640.03" y2="643.96" gradientUnits="userSpaceOnUse">
   <stop stop-color="#fff" offset="0"/>
   <stop stop-color="#fff" stop-opacity="0" offset="1"/>
  </linearGradient>
  <linearGradient id="c" x2="0" y1="653.36" y2="644.61" gradientUnits="userSpaceOnUse">
   <stop offset="0"/>
   <stop stop-color="#fff" stop-opacity="0" offset="1"/>
  </linearGradient>
  <linearGradient id="g" x1="245.51" x2="247.74" y1="602.56" y2="602.55" gradientUnits="userSpaceOnUse">
   <stop stop-color="#006651" offset="0"/>
   <stop stop-color="#008066" offset=".35336"/>
   <stop stop-color="#f2f2f2" stop-opacity=".15038" offset="1"/>
  </linearGradient>
  <linearGradient id="f" x1="93.454" x2="94.967" y1="645.66" y2="645.91" gradientUnits="userSpaceOnUse" xlink:href="D:\Vector_Art\my_folder\OCAL_dev\#linearGradient4349"/>
  <radialGradient id="b" cx="176.5" cy="765.1" r="37.578" gradientTransform="matrix(-1.7232 .09545 -.03064 -.55317 496.31 1049.4)" gradientUnits="userSpaceOnUse" spreadMethod="reflect">
   <stop stop-color="#c9c9c9" offset="0"/>
   <stop stop-color="#efefef" offset=".3946"/>
   <stop stop-color="#fff" offset=".44595"/>
   <stop stop-color="#dedede" offset=".54364"/>
   <stop stop-color="#fcfcfc" offset="1"/>
  </radialGradient>
 </defs>
 <g transform="translate(-37.915 -570.51)">
  <g transform="matrix(2.0996 0 0 2.0996 -193.28 -670.28)">
   <use transform="matrix(1 0 0 -1 0 1582.1)" width="574.56171" height="399.41446" xlink:href="D:\Vector_Art\my_folder\OCAL_dev\#path14548"/>
   <g transform="translate(193.04 -44.548)">
    <path d="m167.17 642.62c-14.109 0.026-28.22 1.1391-42.406 1.0312v-0.34375c-36.631 0-107.71-0.28638-109.91 0-24.358 3.2044-79.897-0.0128-82.438-0.0312-2.0919 0.01-6.1474-0.084-6.2812 0.0312-2.2992 1.8057-3.1288 12.461 0 15.531 0.3102 0.31024 5.7473 0 8.625 0 25.962-1.4729 65.148-5.0022 103 0 15.645 0 71.707-1.4581 72.813-3.1562 3.7984-5.8617 9.9811-4.4246 14.219-4.5-9e-3 -0.0944 7e-3 -0.27352 0-0.46875 4.5218-0.0824 9.2153 0.25597 14 0.71875 0.68597 0.47994 1.4182 1.5666 1.8438 1.6562 21.567 3.7483 43.558 10.052 59.062-7.1875 0.14085-0.11084 0.2977-0.19894 0.4375-0.3125-11.028-2.3387-21.995-2.989-32.969-2.9688zm-42.375 8.5625c0.0366 0.39336 0.0937 0.10115 0.0937 0h-0.0937z" filter="url(#j)"/>
    <path d="m124.6 640.26 75.156 1.9324c-15.519 17.66-37.695 11.268-59.402 7.4958-0.53692-0.11306-1.5439-1.8219-2.3577-1.8838-3.3661-0.27816-10.09-1.387-13.303-1.3137l-0.0937-6.2307z" fill="url(#b)"/>
    <path d="m94.611 639.12h1.625l-2.6227 14.052-1.5026 0.0743 2.5003-14.126v-9e-5" fill="url(#f)"/>
    <g fill="#006651" stroke="#006651" stroke-width=".1">
     <path d="m-67.497 639.12c2.5406 0.0184 58.107 3.2345 82.465 0.0301l1.0607 1.0607c-24.358 3.2044-79.925-0.0117-82.465-0.0301z"/>
     <path d="m14.969 639.15c2.193-0.28638 73.262 0 109.89 0l1.0607 1.0607c-36.631 0-107.7-0.28638-109.89 0z"/>
     <path d="m124.86 639.15c1.9873 2.168 1.426 6.6254 0.12452 7.8746l1.0607 1.0607c1.3015-1.2491 1.8627-5.7065-0.12452-7.8746z"/>
     <path d="m124.99 647.03c-4.2396 0.0977-10.487-1.4008-14.312 4.5018l1.0607 1.0607c3.825-5.9026 10.073-4.4041 14.312-4.5018z"/>
     <path d="m110.67 651.53c-1.1051 1.6981-57.168 3.182-72.813 3.182l1.0607 1.0607c15.645 0 71.708-1.4838 72.813-3.182z"/>
     <path d="m37.861 654.71c-37.852-5.0022-77.038-1.4729-103 0l1.0607 1.0607c25.962-1.4729 65.148-5.0022 103 0z"/>
     <path d="m-65.139 654.71c-2.8777 0-8.3229 0.31024-8.6331 0l1.0607 1.0607c0.31023 0.31024 5.7554 0 8.6331 0z"/>
     <path d="m-73.772 654.71h-3e-6l1.0607 1.0607h3e-6z"/>
     <path d="m-73.772 654.71-0.02384-0.0236 1.0607 1.0607 0.02384 0.0236z"/>
     <path d="m-73.796 654.69c-3.1007-3.1007-2.2695-13.734 0.02384-15.535l1.0607 1.0607c-2.2933 1.8011-3.1245 12.434-0.02384 15.535z"/>
     <path d="m-73.772 639.15v1e-5l1.0607 1.0607v-1e-5z"/>
     <path d="m-73.772 639.15v-1e-5l1.0607 1.0607v1e-5z"/>
     <path d="m-73.772 639.15c0.13383-0.11521 4.1838-0.0201 6.2757-0.0301l1.0607 1.0607c-2.0919 0.01-6.1419-0.0851-6.2757 0.0301z"/>
    </g>
    <path d="m124.49 640.26c25.219 0.19175 50.169-3.4131 75.375 1.9324-19.873 16.143-50.278 3.9691-75.287 4.4349l-0.0884-6.3673z" fill="url(#e)"/>
    <path d="m-67.497 639.12c2.5406 0.0184 58.107 3.2345 82.465 0.0301 2.193-0.28638 73.262 0 109.89 0 1.9873 2.168 1.426 6.6254 0.12452 7.8746-4.2396 0.0977-10.487-1.4008-14.312 4.5018-1.1051 1.6981-57.168 3.182-72.813 3.182-37.852-5.0022-77.038-1.4729-103 0-2.8777 0-8.3229 0.31024-8.6331 0-3.1288-3.0699-2.2992-13.753 0-15.558v1e-5 -1e-5c0.13383-0.11521 4.1838-0.0201 6.2757-0.0301z" fill="#008066"/>
    <path d="m-65.87842,646.99514c.06587-.26696.13165-.34752.28393-.34752 .24792,0 .35167-.13913.41927-.56231 .06205-.38877.12114-.5469.20735-.55532 .12059-.0118.18816.0196.3295.1532 .15324.14483.30137.23699.38097.23699 .09601,0 .26481-.34927.4879-1.00927 .23407-.69248.37209-1.01472.45719-1.06742 .07549-.0467.19327.0945.35072.42097 .08168.16928.18717.34239.23443.3847 .07824.0701.09198.0708.15334.01 .03711-.0371.17603-.40873.30883-.82575 .31218-.98039.36202-1.07948.54236-1.07826 .30107.002.44995.13129 2.32316,2.01642 1.94481,1.95718 1.93573,1.94628 1.93573,2.32598s.0089.3688-1.93573,2.32598c-1.23221,1.24007-1.90019,1.88185-2.01438,1.93538s-.26792.0804-.43449.0811c-.22307.00083-.28417-.0164-.39693-.11142-.23348-.19684-.42873-.66723-.68948-1.66104-.257-.9795-.34634-1.01708-.80043-.33673-.09718.14563-.19762.27772-.22313.29351-.05693.0354-.26112-.15372-.43103-.39914-.0698-.10073-.21089-.37724-.31365-.61444-.27562-.63619-.38102-.72106-.53062-.42722-.12198.23954-.1943.24884-.34242.044-.22497-.31115-.37684-.92978-.3024-1.23167zm2.72988.12319c.08374,0 .13149-.10828.13253-.30061 .00035-.0595.05821-.34463.12871-.63375s.12813-.53435.12813-.54489-.03849.004-.08541.0343c-.09698.0607-.17752.27967-.29546.8037-.11034.49023-.11234.64128-.0089.64128zm3.06089-1.47629c.01659.21181.04505.42452.06302.47271 .02208.059.17562.14869.46987.27457l.43708.18698-.50747.14776c-.2791.0812-.51385.15344-.52166.16042s.10523.19065.25119.40813l.26538.39545-.11238.22959c-.06175.12627-.11238.24687-.11238.26801s.12973.0519.28829.0684 .31062.0422.33792.0569c.03396.0184-.01669.1676-.16046.47239-.11555.245-.202.45355-.1921.46348 .06136.0615.28051-.18542.87718-.98874 .79425-1.06935.84214-1.15034.77174-1.30515-.11163-.24545-.73666-1.07153-1.01238-1.33803-.44266-.42783-.65793-.55055-.96589-.55055-.24012,0-.25141.004-.22988.0964 .01247.0529.03622.26958.05292.48141zm-4.81766,3.99273c.12619-.10861.23043-.12589.33702-.056 .12262.0805.12685.17053.01649.35186-.09394.1544-.26727.22081-.36474.13976-.08904-.074-.08178-.35567.01129-.43571zm.02297-4.95555c.08128-.1618.24714-.16139.40922.00099 .07353.0737.14477.17805.15826.23191 .02906.11626-.04035.39869-.12728.51725-.06047.0823-.0647.0815-.19317-.0415-.13434-.12859-.30253-.43009-.3014-.5403 .00036-.0337.02483-.10951.05438-.16835zm.69339,5.45591c.03259-.11767.06008-.22839.06116-.24605s.0373-.0321.08069-.0321c.18129,0 .30494.30841.30534.76148 .00019.22916-.01542.2851-.10458.37444-.12717.12741-.20954.13238-.32225.0194-.06931-.0694-.08492-.14017-.08255-.37441 .002-.15887.02955-.38514.06213-.50281z" fill="#bef5ea" filter="url(#k)" opacity=".28272"/>
    <path d="m-66.33009,646.98432c.07296-.29568.14582-.38491.31448-.38491 .2746,0 .38951-.15411.46438-.62282 .06872-.43059.13417-.60575.22966-.61508 .13356-.013.2084.0217.36495.1697 .16973.16041.3338.26248.42196.26248 .10634,0 .2933-.38685.5404-1.11786 .25926-.76699.41213-1.1239.50639-1.18226 .08361-.0518.21407.10471.38846.46625 .09046.1875.2073.37924.25966.42609 .08666.0776.10188.0785.16984.0109 .0411-.0411.19497-.45271.34206-.91462 .34577-1.08587.40097-1.19562.60072-1.19426 .33346.002.49836.1454 2.57312,2.23337 2.15407,2.16777 2.14401,2.15569 2.14401,2.57626s.0098.40847-2.14401,2.57625c-1.3648,1.3735-2.10465,2.08433-2.23113,2.14362-.11954.056-.29674.0891-.48124.0898-.24707.00093-.31474-.0182-.43964-.12341-.2586-.21802-.47487-.73902-.76366-1.83976-.28465-1.08489-.3836-1.12652-.88655-.37296-.10764.1613-.21888.30759-.24714.32509-.06306.0391-.28922-.17026-.47741-.44209-.07731-.11158-.23358-.41784-.3474-.68056-.30527-.70463-.42201-.79863-.58772-.47319-.13511.26533-.21521.27562-.37926.0487-.24918-.34464-.41739-1.02982-.33493-1.3642zm3.02361.13645c.09275,0 .14563-.11996.14679-.33296 .00039-.0658.06448-.38171.14255-.70195s.14191-.59184.14191-.60352-.04262.005-.09459.038c-.10743.0672-.19662.30977-.32726.89018-.12221.54298-.12443.71029-.0098.71029zm3.39024-1.63515c.01837.2346.04991.47021.06981.52358 .02446.0653.19452.16469.52042.30411l.48411.20711-.56207.16365c-.30913.09-.56914.16996-.57779.17769s.11655.21115.27822.45204l.29394.438-.12447.25428c-.06839.13986-.12447.27345-.12447.29686s.14369.0575.31931.0758 .34404.0466.37428.0631c.03762.0204-.01848.18563-.17773.52321-.12798.27136-.22373.50236-.21277.51335 .06796.0682.3107-.20536.97157-1.09512 .87971-1.18441.93275-1.27411.85478-1.44559-.12364-.27186-.81592-1.18682-1.12131-1.482-.49029-.47387-.72872-.60978-1.06982-.60978-.26595,0-.27846.005-.25461.10667 .01381.0586.04012.29859.05861.53321zm-5.33603,4.42235c.13977-.12027.25522-.13943.37328-.062 .13581.0892.1405.18888.01827.38972-.10405.17102-.29603.24456-.40398.1548-.09862-.082-.09057-.39393.0125-.4826zm.02544-5.48875c.09003-.17921.27373-.17877.45325.001 .08144.0817.16034.19721.17528.25687 .03218.12877-.04469.44159-.14098.57291-.06698.0912-.07165.0902-.21396-.046-.1488-.14242-.33508-.47636-.33383-.59842 .0004-.0374.02751-.1213.06024-.18646zm.768,6.04295c.0361-.13033.06654-.25297.06774-.27253s.04132-.0356.08938-.0356c.20079,0 .33775.3416.33819.84343 .00021.25381-.01707.31576-.11584.41472-.14085.14112-.23208.14663-.35693.0215-.07676-.0769-.09405-.15525-.09144-.41471 .0022-.17596.03273-.42657.06883-.5569z" fill="#136756"/>
    <path d="m-65.762 639.93c2.4672 0.0147 56.429 2.5785 80.083 0.024 2.1297-0.22831 71.146 0 106.72 0 0.9385 0.84051 1.2917 2.1127 1.2616 3.3124l-196.12 2.2119c0.14491-2.5033 0.88857-4.832 1.9622-5.5242 0.12997-0.0919 4.063-0.016 6.0945-0.024z" fill="url(#d)" filter="url(#i)" opacity=".74346"/>
    <path d="m114.76 646.96c-2.7911 1.9658-3.8055 1.9484-6.0642 3.6828-1.086 1.5778-56.178 2.9565-71.551 2.9565-37.196-4.6477-75.703-1.3686-101.22 0-2.8278 0-8.1787 0.28825-8.4835 0-1.5263-1.416-1.219-4.0754-1.1273-7.1034 65.76 0.43861 122.38 6.8478 188.44 0.46407z" fill="url(#c)" filter="url(#h)" opacity=".743"/>
    <path id="a" transform="rotate(15)" d="m245.97737,597.18793h1.3683a.37521,.26563 0 0,1 .37521.26563v10.21875a.37521,.26563 0 0,1 -.37521.26563h-1.3683a.37521,.26563 0 0,1 -.37521-.26563v-10.21875a.37521,.26563 0 0,1 .37521-.26563" fill="url(#g)"/>
    <use transform="translate(4.1121)" width="574.56171" height="399.41446" xlink:href="#a"/>
    <use transform="translate(8.2241)" width="574.56171" height="399.41446" xlink:href="#a"/>
    <use transform="translate(12.336)" width="574.56171" height="399.41446" xlink:href="#a"/>
    <use transform="translate(16.448)" width="574.56171" height="399.41446" xlink:href="#a"/>
    <use transform="translate(20.56)" width="574.56171" height="399.41446" xlink:href="#a"/>
    <use transform="translate(24.672)" width="574.56171" height="399.41446" xlink:href="#a"/>
   </g>
  </g>
 </g>
</svg>
